<?xml version="1.0" encoding="UTF-8" standalone="no"?>
<svg
     xmlns:dc="http://purl.org/dc/elements/1.1/"
     xmlns:cc="http://creativecommons.org/ns#"
     xmlns:rdf="http://www.w3.org/1999/02/22-rdf-syntax-ns#"
     xmlns:svg="http://www.w3.org/2000/svg"
     xmlns="http://www.w3.org/2000/svg"
     version="1.1"
     id="svg2"
     viewBox="0 0 20 20"
     height="20"
     width="20">
    <defs
         id="defs4" />
    <metadata
         id="metadata7">
        <rdf:RDF>
            <cc:Work
                 rdf:about="">
                <dc:format>image/svg+xml</dc:format>
                <dc:type
                     rdf:resource="http://purl.org/dc/dcmitype/StillImage" />
                <dc:title></dc:title>
            </cc:Work>
        </rdf:RDF>
    </metadata>
    <g
         transform="translate(0,-1032.3622)"
         id="layer1">
        <g
             id="text3427"
             style="font-style:normal;font-variant:normal;font-weight:normal;font-stretch:normal;font-size:16.23249626px;line-height:125%;font-family:'Arial Rounded MT Bold';-inkscape-font-specification:'Arial Rounded MT Bold, Normal';text-align:start;letter-spacing:0px;word-spacing:0px;writing-mode:lr-tb;text-anchor:start;fill:#808080;fill-opacity:1;stroke:none;stroke-width:1px;stroke-linecap:butt;stroke-linejoin:miter;stroke-opacity:1"
             transform="scale(0.99999851,1.0000015)">
            <path
                 id="path3432"
                 style=""
                 d="m 6.0370092,1039.6737 q 0,-0.753 0.4834874,-1.5218 0.4834874,-0.7767 1.4108322,-1.284 0.9273448,-0.5073 2.1638042,-0.5073 1.149274,0 2.029062,0.428 0.879789,0.4201 1.35535,1.1493 0.483488,0.7292 0.483488,1.5852 0,0.6737 -0.277411,1.181 -0.269485,0.5073 -0.649934,0.8798 -0.372523,0.3646 -1.347424,1.2365 -0.269485,0.2457 -0.435931,0.4359 -0.158521,0.1823 -0.237781,0.3408 -0.07926,0.1506 -0.126816,0.3091 -0.03963,0.1506 -0.126817,0.539 -0.150594,0.8243 -0.9431966,0.8243 -0.4121532,0 -0.6974901,-0.2695 -0.2774108,-0.2695 -0.2774108,-0.8005 0,-0.6658 0.2060766,-1.1493 0.2060766,-0.4914 0.5468957,-0.856 0.340819,-0.3725 0.9194182,-0.8798 0.507266,-0.4438 0.729195,-0.6658 0.229854,-0.2298 0.380449,-0.5072 0.15852,-0.2775 0.15852,-0.6024 0,-0.6341 -0.475561,-1.07 -0.467636,-0.436 -1.212682,-0.436 -0.8718624,0 -1.2840156,0.4439 -0.4121532,0.4359 -0.6974901,1.2919 -0.2694848,0.8957 -1.022457,0.8957 -0.4438573,0 -0.7529722,-0.3091 -0.3011889,-0.3171 -0.3011889,-0.6817 z m 3.8678995,8.6869 q -0.4834875,0 -0.8480846,-0.3091 -0.356671,-0.317 -0.356671,-0.8798 0,-0.4993 0.348745,-0.8401 0.3487451,-0.3408 0.8560106,-0.3408 0.4993393,0 0.8401583,0.3408 0.340819,0.3408 0.340819,0.8401 0,0.5549 -0.356671,0.8719 -0.356671,0.317 -0.8243063,0.317 z" />
        </g>
    </g>
</svg>
